<svg xmlns="http://www.w3.org/2000/svg" xmlns:xlink="http://www.w3.org/1999/xlink" viewBox="0 0 1910.99 1926.76"><defs><style>.cls-1,.cls-2,.cls-4{fill:#fff;}.cls-1{clip-rule:evenodd;}.cls-2{fill-rule:evenodd;}.cls-3{clip-path:url(#clip-path);}.cls-5{clip-path:url(#clip-path-2);}</style><clipPath id="clip-path" transform="translate(13.59 13.6)"><path class="cls-1" d="M1308,1211.6s13.62,20.4,47.64,20.4c38.53,0,103.12-24.94,206.29-134.88,0,0-110,250.48-336.65,385.35l-124.69-105.39-3.39-2.27-136,145.07s-308.29-27.21-437.51-214.21c0,0,20.4,7.94,41.93,7.94,26.07,1.12,54.4-9.07,54.4-52.14V820.58c0-22.67-15.86-47.61-49.86-47.61-30.6,1.13-74.82,21.53-134.88,82.75-125.82,130.34-176.82,255-176.82,255S222.17,931.66,411.45,714s332.1-297,485.13-337.76c0,0-121.28,71.4-121.28,178,0,31.74,4.53,52.14,11.33,66.86C795.7,639.24,809.3,646,821.77,646c10.2,0,20.4-4.54,28.33-10.2V1215a103.15,103.15,0,0,0,11.34,20.4c12.47,15.86,34,35.14,70.27,35.14,60.07,0,138.28-69.15,138.28-69.15V732.17c0-47.61-35.14-105.4-71.4-124.67,0,0,77.06-4.54,114.49,24.93,0,0,126.94-153,360.42-199.47,0,0-124.67,148.47-164.35,222.14-6.81,1.13-7.93,139.4-6.81,278.82C1303.49,1067.66,1305.76,1202.54,1308,1211.6Z"/></clipPath><clipPath id="clip-path-2" transform="translate(13.59 13.6)"><path class="cls-1" d="M1580,308.28C1410,136,1183.33,41.93,943.05,41.93c-241.43,0-467,94.07-637,266.35S42,708.37,42,950.92,136,1422.42,306,1593.55c170,172.27,396.71,266.37,637,266.37s467-95.22,637-266.37c170-172.28,264.13-400.08,264.13-642.63S1750.07,479.42,1580,308.28ZM0,949.79C0,425,421.65,0,943.05,0,1463.3,0,1885,425,1883.81,949.79c0,524.78-421.64,949.78-941.9,949.78S0,1474.57,0,949.79Z"/></clipPath></defs><title>Unreal_1</title><g id="Layer_2" data-name="Layer 2"><g id="Layer_1-2" data-name="Layer 1"><path class="cls-2" d="M1308,1211.6s13.62,20.4,47.64,20.4c38.53,0,103.12-24.94,206.29-134.88,0,0-110,250.48-336.65,385.35l-124.69-105.39-3.39-2.27-136,145.07s-308.29-27.21-437.51-214.21c0,0,20.4,7.94,41.93,7.94,26.07,1.12,54.4-9.07,54.4-52.14V820.58c0-22.67-15.86-47.61-49.86-47.61-30.6,1.13-74.82,21.53-134.88,82.75-125.82,130.34-176.82,255-176.82,255S222.17,931.66,411.45,714s332.1-297,485.13-337.76c0,0-121.28,71.4-121.28,178,0,31.74,4.53,52.14,11.33,66.86C795.7,639.24,809.3,646,821.77,646c10.2,0,20.4-4.54,28.33-10.2V1215a103.15,103.15,0,0,0,11.34,20.4c12.47,15.86,34,35.14,70.27,35.14,60.07,0,138.28-69.15,138.28-69.15V732.17c0-47.61-35.14-105.4-71.4-124.67,0,0,77.06-4.54,114.49,24.93,0,0,126.94-153,360.42-199.47,0,0-124.67,148.47-164.35,222.14-6.81,1.13-7.93,139.4-6.81,278.82C1303.49,1067.66,1305.76,1202.54,1308,1211.6Z" transform="translate(13.59 13.6)"/><g class="cls-3"><rect class="cls-4" x="255.02" y="376.28" width="1332.94" height="1171.94"/></g><path class="cls-2" d="M1580,308.28C1410,136,1183.33,41.93,943.05,41.93c-241.43,0-467,94.07-637,266.35S42,708.37,42,950.92,136,1422.42,306,1593.55c170,172.27,396.71,266.37,637,266.37s467-95.22,637-266.37c170-172.28,264.13-400.08,264.13-642.63S1750.07,479.42,1580,308.28ZM0,949.79C0,425,421.65,0,943.05,0,1463.3,0,1885,425,1883.81,949.79c0,524.78-421.64,949.78-941.9,949.78S0,1474.57,0,949.79Z" transform="translate(13.59 13.6)"/><g class="cls-5"><rect class="cls-4" width="1910.99" height="1926.76"/></g></g></g></svg>